<?xml version="1.0" standalone="no"?><!DOCTYPE svg PUBLIC "-//W3C//DTD SVG 1.1//EN" "http://www.w3.org/Graphics/SVG/1.1/DTD/svg11.dtd"><svg t="1507814998160" class="icon" style="" viewBox="0 0 1024 1024" version="1.1" xmlns="http://www.w3.org/2000/svg" p-id="7734" xmlns:xlink="http://www.w3.org/1999/xlink" width="200" height="200"><defs><style type="text/css"></style></defs><path d="M339.2 64l12.8 0c44.8 0 64 6.4 64 6.4 6.4 6.4 12.8 12.8 12.8 32l0 19.2c0 19.2-6.4 25.6-19.2 25.6C377.6 160 320 192 224 236.8 172.8 256 140.8 268.8 128 268.8L128 262.4c19.2-19.2 64-51.2 128-96 32-25.6 51.2-51.2 64-70.4C326.4 76.8 332.8 64 332.8 64L339.2 64zM659.2 70.4 659.2 70.4c51.2 6.4 76.8 19.2 89.6 44.8l0 6.4c0 32-44.8 57.6-128 76.8-38.4 12.8-64 25.6-89.6 44.8C473.6 275.2 448 294.4 448 313.6L448 320c0 12.8 6.4 25.6 19.2 32 64-12.8 121.6-19.2 179.2-32 12.8-25.6 25.6-32 51.2-32L704 288c19.2 0 38.4 12.8 57.6 32l0 12.8c0 19.2-12.8 38.4-38.4 70.4-32 51.2-64 96-96 134.4 6.4 6.4 19.2 12.8 51.2 19.2 6.4 6.4 6.4 12.8 6.4 12.8-6.4 12.8-12.8 19.2-25.6 19.2l-12.8 0L576 563.2 563.2 563.2 531.2 576c12.8 12.8 19.2 19.2 19.2 25.6l6.4 12.8 0 19.2L512 704c-6.4 32-12.8 57.6-12.8 70.4l0 6.4c0 25.6 6.4 44.8 19.2 64 19.2 25.6 51.2 32 83.2 32l32 6.4c76.8-12.8 128-25.6 153.6-44.8l19.2-19.2c0-64 6.4-96 19.2-96 6.4 0 12.8 12.8 19.2 25.6 0 32 6.4 51.2 19.2 57.6l19.2-6.4 6.4 0c12.8 6.4 19.2 12.8 19.2 19.2l0 6.4L908.8 832c0 57.6-57.6 96-166.4 121.6C704 960 684.8 960 659.2 960L640 960c-76.8 0-140.8-19.2-179.2-64-12.8-25.6-19.2-57.6-19.2-83.2l0-12.8c0-51.2 12.8-128 38.4-224C473.6 569.6 467.2 569.6 460.8 569.6 448 569.6 428.8 595.2 416 640c-19.2 57.6-44.8 102.4-64 128-38.4 70.4-96 121.6-185.6 153.6 0-6.4 44.8-64 128-185.6 25.6-44.8 44.8-83.2 64-121.6l6.4-25.6L352 588.8C307.2 601.6 275.2 601.6 268.8 601.6L262.4 601.6c-19.2 0-32-12.8-32-19.2C230.4 576 236.8 563.2 256 544c0-19.2-12.8-44.8-32-76.8C172.8 409.6 147.2 371.2 147.2 364.8 160 345.6 172.8 339.2 192 339.2c25.6 0 51.2 19.2 76.8 57.6 12.8 19.2 19.2 38.4 19.2 44.8C294.4 448 300.8 467.2 307.2 486.4c12.8 38.4 19.2 57.6 32 57.6 25.6 0 44.8-6.4 44.8-6.4 12.8-12.8 19.2-32 19.2-51.2L403.2 473.6c0-19.2-6.4-38.4-19.2-57.6L332.8 416C320 416 320 416 320 409.6L320 403.2c0 0 12.8-6.4 44.8-19.2 6.4 0 6.4-6.4 6.4-12.8C358.4 352 352 339.2 352 320c0-19.2 12.8-25.6 38.4-25.6l6.4 0c51.2-32 102.4-76.8 160-128C544 160 537.6 160 524.8 160L473.6 160c-12.8 0-25.6 0-32-6.4 0-6.4 32-19.2 102.4-32L595.2 128l6.4 0c12.8 0 32-12.8 44.8-44.8L659.2 70.4zM467.2 396.8 460.8 499.2l0 6.4c0 12.8 0 19.2 6.4 19.2 0 0 6.4 6.4 19.2 6.4l44.8 0C544 531.2 556.8 505.6 576 448c0-6.4 12.8-25.6 44.8-51.2l6.4-25.6C614.4 364.8 601.6 358.4 582.4 358.4 563.2 358.4 524.8 371.2 467.2 396.8zM646.4 704c32 0 64 19.2 89.6 51.2 6.4 12.8 6.4 19.2 6.4 25.6l0 19.2c0 12.8-12.8 25.6-38.4 38.4l-12.8 0c-19.2 0-32-12.8-44.8-38.4-6.4-12.8-25.6-25.6-44.8-38.4 0 0-12.8-6.4-19.2-19.2l0-6.4C595.2 710.4 608 704 646.4 704z" p-id="7735" fill="#1296db"></path></svg>